<svg width="18" height="23" viewBox="0 0 18 23" fill="none" xmlns="http://www.w3.org/2000/svg">
<path d="M15.5 15.5L3 3" stroke="#D15756" stroke-width="2" stroke-linecap="round" stroke-linejoin="round"/>
<path fill-rule="evenodd" clip-rule="evenodd" d="M6.5 9.46985V12.5C6.5 13.8807 7.61929 15 9 15C9.8256 15 10.5577 14.5998 11.013 13.9828L6.5 9.46985ZM11.5 8.53015V4.5C11.5 3.11929 10.3807 2 9 2C7.9099 2 6.98275 2.6977 6.64076 3.67091L11.5 8.53015Z" fill="black"/>
<path fill-rule="evenodd" clip-rule="evenodd" d="M12.3326 15.3024C11.6705 15.7704 10.6364 16.15 9.00019 16.15C6.48687 16.15 5.39403 15.2543 4.88808 14.5184C4.61886 14.1269 4.4827 13.7325 4.41452 13.4351C4.38064 13.2873 4.36441 13.1672 4.3567 13.0888C4.35286 13.0497 4.35119 13.0215 4.35048 13.006L4.35002 12.9937V9.00002C4.35002 8.53058 3.96947 8.15002 3.50002 8.15002C3.03058 8.15002 2.65002 8.53058 2.65002 9.00002V13V13.0001L3.50002 13C2.65002 13.0001 2.65002 13.0007 2.65003 13.0013L2.65003 13.0026L2.65004 13.0054L2.6501 13.0123L2.6504 13.0304C2.65072 13.0445 2.65128 13.0624 2.65227 13.0839C2.65424 13.127 2.65794 13.1847 2.66486 13.255C2.67865 13.3954 2.70541 13.5877 2.7575 13.815C2.86125 14.2675 3.06891 14.8732 3.48725 15.4816C4.27021 16.6203 5.69263 17.6294 8.15014 17.8183L8.15011 18.5L8.15007 19.15H6.50002C6.03058 19.15 5.65002 19.5306 5.65002 20C5.65002 20.4695 6.03058 20.85 6.50002 20.85H9.00002H11.5C11.9695 20.85 12.35 20.4695 12.35 20C12.35 19.5306 11.9695 19.15 11.5 19.15H9.85007L9.8501 18.5001L9.85014 17.8184C11.5178 17.6901 12.7087 17.1843 13.5467 16.5165L12.3326 15.3024ZM15.35 12.3802V11V9.00002C15.35 8.53058 14.9695 8.15002 14.5 8.15002C14.0306 8.15002 13.65 8.53058 13.65 9.00002V10.6802L15.35 12.3802Z" fill="black"/>
</svg>
