<svg width="18" height="23" viewBox="0 0 18 23" fill="none" xmlns="http://www.w3.org/2000/svg">
<path d="M15.5 15.5L3 3" stroke="#D15756" stroke-width="2" stroke-linecap="round" stroke-linejoin="round"/>
<path fill-rule="evenodd" clip-rule="evenodd" d="M6.5 9.46985V12.5C6.5 13.8807 7.61929 15 9 15C9.8256 15 10.5577 14.5998 11.013 13.9828L6.5 9.46985ZM11.5 8.53015V4.5C11.5 3.11929 10.3807 2 9 2C7.9099 2 6.98275 2.6977 6.64076 3.67091L11.5 8.53015Z" fill="black"/>
<path fill-rule="evenodd" clip-rule="evenodd" d="M11.9658 14.9356C11.4877 15.5625 10.6307 16.15 9.00018 16.15C7.06468 16.15 6.21906 15.3223 5.80338 14.5833C5.57988 14.186 5.46428 13.7803 5.40578 13.4684C5.37686 13.3141 5.36283 13.1878 5.35608 13.1038C5.35272 13.062 5.3512 13.0311 5.35053 13.0131L5.35002 12.9962V9.00002C5.35002 8.53058 4.96947 8.15002 4.50002 8.15002C4.03058 8.15002 3.65002 8.53058 3.65002 9.00002V13H4.50002C3.65002 13 3.65002 13.0005 3.65002 13.001L3.65003 13.0021L3.65003 13.0045L3.65008 13.0105L3.6503 13.0269C3.65054 13.0398 3.65096 13.0565 3.65172 13.0768C3.65324 13.1174 3.65612 13.1724 3.66155 13.24C3.67238 13.3748 3.69351 13.5609 3.7349 13.7817C3.81703 14.2197 3.98269 14.8141 4.32171 15.4168C4.94841 16.5308 6.11764 17.5756 8.15013 17.804L8.1501 18.5L8.15006 19.15H6.50002C6.03057 19.15 5.65002 19.5306 5.65002 20C5.65002 20.4695 6.03057 20.85 6.50002 20.85H9.00002H11.5C11.9695 20.85 12.35 20.4695 12.35 20C12.35 19.5306 11.9695 19.15 11.5 19.15H9.85006L9.8501 18.5001L9.85013 17.804C11.429 17.6266 12.4869 16.9566 13.1742 16.1441L11.9658 14.9356ZM14.35 11.3802V9.00002C14.35 8.53058 13.9695 8.15002 13.5 8.15002C13.0306 8.15002 12.65 8.53058 12.65 9.00002V9.68018L14.35 11.3802Z" fill="black"/>
</svg>
