<svg width="18" height="23" viewBox="0 0 18 23" fill="none" xmlns="http://www.w3.org/2000/svg">
<path fill-rule="evenodd" clip-rule="evenodd" d="M9 2C10.3807 2 11.5 3.11929 11.5 4.5V12.5C11.5 13.8807 10.3807 15 9 15C7.61929 15 6.5 13.8807 6.5 12.5V4.5C6.5 3.11929 7.61929 2 9 2Z" fill="black"/>
<path fill-rule="evenodd" clip-rule="evenodd" d="M4.50002 8.15002C4.96947 8.15002 5.35002 8.53058 5.35002 9.00002V12.9962L5.35053 13.0131C5.3512 13.0311 5.35272 13.062 5.35608 13.1038C5.36283 13.1878 5.37686 13.3141 5.40578 13.4684C5.46428 13.7803 5.57988 14.186 5.80338 14.5833C6.21906 15.3223 7.06468 16.15 9.00018 16.15C10.9357 16.15 11.7812 15.3223 12.1968 14.5833C12.4203 14.186 12.5358 13.7804 12.5943 13.4684C12.6232 13.3142 12.6372 13.1879 12.644 13.1039C12.6473 13.062 12.6488 13.0312 12.6495 13.0132L12.65 12.9962V9.00002C12.65 8.53058 13.0306 8.15002 13.5 8.15002C13.9695 8.15002 14.35 8.53058 14.35 9.00002V13H13.7763C14.35 13.0001 14.35 13.0005 14.35 13.0009L14.35 13.002L14.35 13.0045L14.35 13.0104L14.3497 13.0269C14.3495 13.0397 14.3491 13.0564 14.3483 13.0767C14.3468 13.1173 14.3439 13.1724 14.3385 13.2399C14.3277 13.3747 14.3066 13.5609 14.2652 13.7816C14.1831 14.2196 14.0175 14.814 13.6785 15.4167C13.0519 16.5308 11.8827 17.5756 9.85013 17.804L9.8501 18.5001L9.85006 19.15H11.5C11.9695 19.15 12.35 19.5306 12.35 20C12.35 20.4695 11.9695 20.85 11.5 20.85H9.00002H6.50002C6.03057 20.85 5.65002 20.4695 5.65002 20C5.65002 19.5306 6.03057 19.15 6.50002 19.15H8.15006L8.1501 18.5L8.15013 17.804C6.11764 17.5756 4.94841 16.5308 4.32171 15.4168C3.98269 14.8141 3.81703 14.2197 3.7349 13.7817C3.69351 13.5609 3.67238 13.3748 3.66155 13.24C3.65612 13.1724 3.65324 13.1174 3.65172 13.0768C3.65096 13.0565 3.65054 13.0398 3.6503 13.0269L3.65008 13.0105L3.65003 13.0045L3.65003 13.0021L3.65002 13.001C3.65002 13.0005 3.65002 13 4.50002 13H3.65002V9.00002C3.65002 8.53058 4.03058 8.15002 4.50002 8.15002Z" fill="black"/>
</svg>
